<svg width="60" height="60" viewBox="0 0 60 60" fill="none" xmlns="http://www.w3.org/2000/svg">
<path d="M31 34C27.467 34 25 36.467 25 40V40.9999C25 45.8599 27.748 49 32 49C36.252 49 38.9999 45.8599 38.9999 40.9999V40C38.9999 36.467 36.532 34 32.9999 34H31ZM37 40V40.9999C37 42.8039 36.512 46.9999 32 46.9999C27.487 46.9999 26.9999 42.8039 26.9999 40.9999V40C26.9999 37.57 28.5699 36 30.9999 36H33C35.429 36 37 37.57 37 40Z" fill="white"/>
<path d="M30.0299 40H30.0189C29.4679 40 29.0249 40.448 29.0249 40.9999C29.0249 41.5519 29.4769 41.9999 30.0299 41.9999C30.5819 41.9999 31.0299 41.5519 31.0299 40.9999C31.0299 40.448 30.5819 40 30.0299 40Z" fill="white"/>
<path d="M34.923 26.997C35.48 27.0329 35.9549 26.627 35.997 26.0769L36.996 13.0929C37.218 10.7129 40.4171 7.99992 43 7.99992H44.9999C47.632 7.99992 50.8299 10.7019 51.003 13.077L52.0029 26.0769C52.0429 26.6009 52.4809 26.9999 52.9989 26.9999C53.0239 26.9999 53.0509 26.9989 53.077 26.9968C53.6269 26.9549 54.039 26.4738 53.997 25.9228L52.997 12.9268C52.73 9.26203 48.3019 6 44.9999 6H42.9999C39.3599 6 35.3249 9.48598 35.0029 12.923L34.0029 25.9229C33.961 26.4739 34.3729 26.955 34.923 26.997Z" fill="white"/>
<path d="M43.948 12.684C43.8119 12.275 43.43 12 42.9999 12C42.5689 12 42.1869 12.275 42.0509 12.684C41.2999 14.9391 39.0869 14.9991 39 15C38.447 15 38 15.448 38 16V19.9999C38 23.3399 40.282 28 44 28C47.717 28 50 23.34 50 19.9999V16C50 15.448 49.552 15 49 15C48.9569 15 44.7 14.937 43.948 12.684ZM48 20C48 22.7181 46.216 26 44 26C41.784 26 40 22.7181 40 20V16.878C40.979 16.6561 42.188 16.098 43.0761 14.962C44.4761 16.363 46.7111 16.8011 48.0001 16.938V20H48Z" fill="white"/>
<path d="M20 14H20.9999C21.5519 14 21.9999 13.552 21.9999 13.0001C21.9999 12.4481 21.5519 12.0001 20.9999 12.0001H20C19.447 12.0001 19 12.4481 19 13.0001C18.9999 13.552 19.447 14 20 14Z" fill="white"/>
<path d="M34.0299 42C34.5819 42 35.0299 41.552 35.0299 41.0001C35.0299 40.4481 34.5819 40.0001 34.0299 40.0001H34.0189C33.4679 40.0001 33.0249 40.4481 33.0249 41.0001C33.0249 41.552 33.4769 42 34.0299 42Z" fill="white"/>
<path d="M10.038 15.7531C10.2291 17.6751 11.0651 19.367 11.105 19.447C12.011 21.2601 13.382 24 18 24C22.618 24 23.988 21.2601 24.894 19.447C24.934 19.367 25.77 17.6751 25.9621 15.7531C26.5801 15.4131 27.0001 14.754 27.0001 14.0001V12C27.0001 11.261 26.5971 10.615 26.0002 10.269V10.0001C26.0002 6.69107 23.3081 4.00009 20.0002 4.00009H16.0002C12.6912 4.00009 10.0002 6.69107 10.0002 10.0001V10.269C9.40195 10.615 9 11.261 9 12V14.0001C9 14.754 9.42 15.413 10.038 15.7531ZM11 12C11.552 12 12 11.552 12 11.0001V10.0001C12 7.79404 13.794 6.00013 16 6.00013H19.9999C22.206 6.00013 23.9999 7.79415 23.9999 10.0001V11.0001C23.9999 11.552 24.4468 12 24.9998 12V14.0001C24.4468 14.0001 23.9999 14.4481 23.9999 15C23.9999 16.7301 23.1139 18.536 23.1049 18.553C22.0639 20.635 21.1459 22 17.9999 22C14.8529 22 13.9349 20.635 12.8948 18.554C12.8849 18.5359 11.9999 16.7299 11.9999 15C11.9999 14.4481 11.5519 14.0001 10.9999 14.0001V12H11Z" fill="white"/>
<path d="M35 50.0001C34.8019 50.0001 34.6089 50.059 34.445 50.1681L32 51.7981L29.5539 50.168C29.39 50.059 29.197 49.9999 29 49.9999C23.215 49.9999 22 52.7189 22 55C22 55.5519 22.447 55.9999 23 55.9999C23.5519 55.9999 23.9999 55.5519 23.9999 55C23.9999 54.196 23.9999 52.088 28.7009 52.002L31.4448 53.832C31.7808 54.0559 32.2178 54.0559 32.5538 53.832L35.2988 52.002C39.9998 52.088 39.9998 54.196 39.9998 55C39.9998 55.5519 40.4467 55.9999 40.9997 55.9999C41.5517 55.9999 41.9997 55.5519 41.9997 55C41.9999 52.719 40.7849 50.0001 35 50.0001Z" fill="white"/>
<path d="M53.0659 38.0001H53.062C52.5109 38.0001 52.064 38.445 52.062 38.996L52 54.996C51.998 55.548 52.443 55.998 52.996 56.0001H53C53.551 56.0001 53.9979 55.5551 53.9999 55.0041L54.0619 39.0041C54.0639 38.4521 53.6189 38.0021 53.0659 38.0001Z" fill="white"/>
<path d="M15 14H15.9999C16.5519 14 16.9999 13.552 16.9999 13.0001C16.9999 12.4481 16.5519 12.0001 15.9999 12.0001H15C14.447 12.0001 14 12.4481 14 13.0001C14 13.552 14.447 14 15 14Z" fill="white"/>
<path d="M22.9801 32.197L23.8171 28.0211C28.8661 28.1351 32.5001 29.3931 33.614 31.4391C33.877 31.9241 34.4821 32.1031 34.97 31.839C35.4551 31.575 35.634 30.968 35.37 30.4831C33.801 27.5991 29.4309 26.0131 23.064 26.0131C22.567 26.004 22.118 26.3281 22.019 26.816L21.0191 31.8031C20.911 32.3451 21.2611 32.872 21.8031 32.9801C21.8701 32.994 21.935 33.0001 22.0011 33.0001C22.4681 33 22.8841 32.672 22.9801 32.197Z" fill="white"/>
<path d="M57.5481 31.001C55.5881 29.0451 52.6431 28.0121 49.03 28.0121C48.4521 28.0231 48.003 28.449 48.0001 29.0091C47.999 29.2131 47.9291 34.0001 44.0001 34.0001C40.0701 34.0001 40.0011 29.214 40.0002 29.0101C39.9991 28.4591 39.5512 28.0131 39.0002 28.0131C38.4472 28.0131 38.0002 28.4601 38.0002 29.0131C38.0002 31.2491 39.0802 35.3221 43.0003 35.919V41.0001C43.0003 41.552 43.4472 42 44.0002 42C44.5522 42 45.0002 41.552 45.0002 41.0001V35.918C48.3752 35.403 49.6462 32.3149 49.9322 30.0369C52.5852 30.1859 54.7161 31 56.1342 32.4169C57.3382 33.618 58.0002 35.2449 58.0002 36.9999V52.9998C58.0002 53.5518 58.4471 53.9998 59.0001 53.9998C59.5521 53.9998 60.0001 53.5518 60.0001 52.9998V37C60.0001 34.71 59.1291 32.58 57.5481 31.001Z" fill="white"/>
<path d="M18 26.0001C16.8971 26.0001 16 26.897 16 28.0001C16 28.7371 16.405 29.3751 17 29.7221V37.0001C17 37.5521 17.4469 38.0001 17.9999 38.0001C18.5519 38.0001 18.9999 37.5521 18.9999 37.0001V29.7221C19.5939 29.3751 19.9998 28.7371 19.9998 28.0001C20.0001 26.897 19.1021 26.0001 18 26.0001Z" fill="white"/>
<path d="M6.99996 38.0001C6.44695 38.0001 6 38.4481 6 39V55C6 55.5519 6.44695 55.9999 6.99996 55.9999C7.55191 55.9999 7.99992 55.5519 7.99992 55V39C8.00004 38.4481 7.55203 38.0001 6.99996 38.0001Z" fill="white"/>
<path d="M13.978 26.809C13.878 26.323 13.407 26.014 12.932 26.0129C7.67894 26.0129 3.66094 27.1379 1.61203 29.1819C0.543047 30.25 0 31.535 0 33V53C0 53.552 0.446953 54 0.999961 54C1.55191 54 1.99992 53.552 1.99992 53V33C1.99992 32.072 2.3359 31.286 3.02496 30.597C4.58297 29.042 7.89691 28.1169 12.188 28.0209L17.021 51.2039C17.133 51.7439 17.665 52.0909 18.204 51.9789C18.7451 51.8659 19.0921 51.3359 18.978 50.7959L13.978 26.809Z" fill="white"/>
</svg>
