<svg width="60" height="60" viewBox="0 0 60 60" fill="none" xmlns="http://www.w3.org/2000/svg">
<path d="M40.345 40.245C40.2491 40.328 38 42.3201 38 46V51C38 51.552 38.447 52 39 52C39.553 52 39.9999 51.552 39.9999 51V46C39.9999 43.266 41.593 41.8119 41.7069 41.7069L48.7068 34.707C49.1039 34.3099 49.5989 34.08 50.1008 34.06C50.6108 34.0379 51.0488 34.2219 51.4138 34.5859C51.7777 34.951 51.9608 35.4049 51.9398 35.8989C51.9198 36.4009 51.6898 36.8959 51.2928 37.2928L46.2931 42.293C45.9021 42.684 45.9021 43.316 46.2931 43.707C46.6841 44.098 47.3162 44.098 47.7071 43.707L52.7071 38.708C53.4602 37.9549 53.8972 36.986 53.9391 35.98C53.9821 34.9289 53.5882 33.931 52.8281 33.1719C52.0681 32.4129 51.083 32.022 50.0191 32.0609C49.0141 32.1028 48.0451 32.5398 47.2931 33.2929L40.345 40.245Z" fill="white"/>
<path d="M11 51C11.2561 51 11.512 50.902 11.707 50.707C12.0981 50.316 12.0981 49.684 11.707 49.2931L3.65004 41.2411C3.58301 41.1822 2.00004 39.77 2.00004 37.0001V22.0001C2.00004 20.8971 2.89699 20 4.00008 20C5.10305 20 6.00012 20.897 6.00012 22.0001V29.917C6.00012 30.469 6.44707 30.917 7.00008 30.917C7.55309 30.917 8.00004 30.469 8.00004 29.917V22.0001C8.00004 19.794 6.20602 18.0001 4.00008 18.0001C1.79402 18 0 19.794 0 22V37C0 40.7339 2.25902 42.683 2.29301 42.707L10.293 50.707C10.488 50.902 10.744 51 11 51Z" fill="white"/>
<path d="M6.06104 35.98C6.103 36.986 6.53999 37.9549 7.29304 38.7069L12.2931 43.707C12.6841 44.098 13.3161 44.098 13.7071 43.707C14.098 43.3159 14.098 42.6839 13.7071 42.293L8.70702 37.292C8.30999 36.896 8.08007 36.401 8.06003 35.899C8.03905 35.405 8.22198 34.9509 8.58608 34.586C8.95112 34.222 9.3921 34.0381 9.89905 34.0601C10.4011 34.0801 10.8961 34.31 11.293 34.7071L18.34 41.7511C18.407 41.8122 19.9999 43.2661 19.9999 46.0001V51C19.9999 51.552 20.4469 52 20.9999 52C21.5529 52 21.9998 51.552 21.9998 51V46C21.9998 42.3199 19.7509 40.328 19.7068 40.2929L12.707 33.293C11.955 32.5399 10.986 32.1029 9.98097 32.061C8.91292 32.024 7.93101 32.413 7.17198 33.172C6.41202 33.9311 6.01804 34.929 6.06104 35.98Z" fill="white"/>
<path d="M30 13C31.1029 13 32 13.8969 32 15C32 15.552 32.447 16 33 16C33.553 16 33.9999 15.552 33.9999 15C33.9999 13.142 32.7209 11.589 30.9999 11.142V10.9999C30.9999 10.448 30.553 9.99997 30 9.99997C29.447 9.99997 29 10.448 29 10.9999V11.142C27.279 11.5889 26 13.142 26 15C26 17.2061 27.794 19 30 19C31.1029 19 32 19.8969 32 21C32 22.1031 31.103 23 30 23C28.897 23 27.9999 22.1031 27.9999 21C27.9999 20.4481 27.553 20 27 20C26.447 20 26 20.4481 26 21C26 22.858 27.279 24.411 29 24.8581V25.0001C29 25.552 29.447 26 30 26C30.553 26 30.9999 25.552 30.9999 25.0001V24.8581C32.7209 24.4111 33.9999 22.858 33.9999 21C33.9999 18.794 32.2059 17 30 17C28.897 17 27.9999 16.1031 27.9999 15C27.9999 13.897 28.897 13 30 13Z" fill="white"/>
<path d="M23 54H6.99996C6.44695 54 6 54.448 6 55V58.9999C6 59.5519 6.44695 59.9999 6.99996 59.9999C7.55297 59.9999 7.99992 59.5519 7.99992 58.9999V55.9999H22V58.9999C22 59.5519 22.4469 59.9999 22.9999 59.9999C23.5529 59.9999 23.9999 59.5519 23.9999 58.9999V55C24 54.448 23.553 54 23 54Z" fill="white"/>
<path d="M53 54H37C36.447 54 36 54.448 36 55V58.9999C36 59.5519 36.447 59.9999 37 59.9999C37.553 59.9999 37.9999 59.5519 37.9999 58.9999V55.9999H52V58.9999C52 59.5519 52.4469 59.9999 52.9999 59.9999C53.5529 59.9999 53.9999 59.5519 53.9999 58.9999V55C54 54.448 53.553 54 53 54Z" fill="white"/>
<path d="M30 3.99997C22.2801 3.99997 16 10.2799 16 18C16 25.7201 22.2801 32 30 32C37.72 32 44.0001 25.72 44.0001 18C44.0001 10.28 37.72 3.99997 30 3.99997ZM30 30C23.383 30 18 24.617 18 18C18 11.383 23.383 6.00001 30 6.00001C36.617 6.00001 42 11.383 42 18C42 24.617 36.617 30 30 30Z" fill="white"/>
<path d="M56.0001 18C53.7941 18 52.0002 19.794 52.0002 22V29.9169C52.0002 30.4689 52.4471 30.9169 53.0001 30.9169C53.5531 30.9169 54.0001 30.4689 54.0001 29.9169V22C54.0001 20.897 54.897 19.9999 56.0001 19.9999C57.1032 19.9999 58.0002 20.8969 58.0002 22V37C58.0002 39.7699 56.4172 41.1819 56.2932 41.293L48.293 49.293C47.902 49.6841 47.902 50.3161 48.293 50.707C48.488 50.902 48.7441 51 49 51C49.2561 51 49.512 50.902 49.707 50.707L57.6451 42.7641C57.7411 42.6831 60.0001 40.734 60.0001 37.0001V22.0001C60.0001 19.794 58.2061 18 56.0001 18Z" fill="white"/>
<path d="M48 18C48 8.07504 39.925 0 30 0C20.075 0 12 8.07504 12 18C12 27.925 20.075 36 30 36C39.925 36 48 27.925 48 18ZM30 34C21.178 34 14 26.822 14 18C14 9.17801 21.178 2.00004 30 2.00004C38.822 2.00004 46 9.17801 46 18C46 26.822 38.822 34 30 34Z" fill="white"/>
</svg>
