<svg width="60" height="60" viewBox="0 0 60 60" fill="none" xmlns="http://www.w3.org/2000/svg">
<path d="M0.55249 40.67C1.90311 42.3797 3.39956 43.969 5.02499 45.42C5.01999 45.2775 4.99999 45.1425 4.99999 45C5.00977 42.4627 5.78702 39.9878 7.22958 37.9004C8.67214 35.8131 10.7125 34.2111 13.0825 33.305C13.5184 33.1401 13.8995 32.8566 14.1828 32.4865C14.4661 32.1165 14.6404 31.6746 14.6859 31.2108C14.7314 30.747 14.6463 30.2797 14.4403 29.8616C14.2343 29.4436 13.9155 29.0915 13.52 28.845C12.4391 28.1772 11.5478 27.2431 10.9315 26.1321C10.3152 25.0211 9.99442 23.7705 9.99999 22.5C9.99454 21.0435 10.415 19.6172 11.2096 18.3965C12.0043 17.1759 13.1384 16.2142 14.4725 15.6298C15.8066 15.0453 17.2825 14.8637 18.7185 15.1071C20.1545 15.3506 21.4881 16.0085 22.555 17C24.1178 16.1029 25.8306 15.4973 27.61 15.2125C26.6347 13.85 25.3952 12.6977 23.9652 11.8243C22.5352 10.951 20.944 10.3744 19.2865 10.129C17.629 9.88352 15.939 9.97424 14.3173 10.3957C12.6955 10.8172 11.1753 11.5608 9.84698 12.5822C8.51871 13.6036 7.40963 14.882 6.58583 16.3411C5.76203 17.8002 5.24036 19.4102 5.05192 21.0752C4.86347 22.7401 5.0121 24.426 5.48895 26.0323C5.9658 27.6386 6.76111 29.1325 7.82749 30.425C4.2295 32.8336 1.64079 36.4792 0.55249 40.67V40.67ZM59.4475 40.67C58.3603 36.4774 55.7715 32.8299 52.1725 30.42C53.2354 29.1271 54.0275 27.6338 54.5017 26.0287C54.976 24.4236 55.1226 22.7396 54.933 21.0767C54.7434 19.4138 54.2214 17.806 53.3979 16.3488C52.5745 14.8917 51.4666 13.615 50.1399 12.5947C48.8132 11.5743 47.2949 10.8311 45.6753 10.4093C44.0557 9.9874 42.3677 9.89549 40.7119 10.139C39.056 10.3825 37.466 10.9565 36.0364 11.8268C34.6068 12.697 33.3667 13.8459 32.39 15.205C34.1694 15.4897 35.8822 16.0953 37.445 16.9925C38.211 16.288 39.1155 15.7511 40.1007 15.4159C41.086 15.0808 42.1303 14.9549 43.167 15.0463C44.2037 15.1376 45.2099 15.4442 46.1213 15.9465C47.0328 16.4487 47.8295 17.1356 48.4605 17.9631C49.0914 18.7907 49.5429 19.7408 49.7859 20.7527C50.0289 21.7646 50.0581 22.8161 49.8717 23.84C49.6853 24.8638 49.2874 25.8376 48.7034 26.6989C48.1194 27.5603 47.3621 28.2904 46.48 28.8425C46.0844 29.089 45.7657 29.4411 45.5597 29.8591C45.3537 30.2772 45.2686 30.7445 45.3141 31.2083C45.3596 31.6721 45.5338 32.114 45.8172 32.484C46.1005 32.8541 46.4816 33.1376 46.9175 33.3025C49.2879 34.2088 51.3285 35.8112 52.7711 37.899C54.2137 39.9868 54.9907 42.4623 55 45C55 45.1425 54.98 45.2775 54.975 45.4175C56.6003 43.9673 58.0967 42.3788 59.4475 40.67V40.67Z" fill="white"/>
<path d="M47.385 50.71C47.1134 48.1444 46.2819 45.6697 44.9493 43.4606C43.6166 41.2515 41.8153 39.3618 39.6725 37.925C41.5106 35.6941 42.5108 32.8906 42.5 30C42.4989 27.9972 42.0165 26.024 41.0935 24.2466C40.1705 22.4692 38.834 20.9395 37.1964 19.7865C35.5588 18.6335 33.6682 17.8908 31.6836 17.621C29.6991 17.3513 27.6788 17.5623 25.7928 18.2364C23.9069 18.9105 22.2105 20.0279 20.8466 21.4945C19.4827 22.961 18.4911 24.7339 17.9554 26.6637C17.4197 28.5935 17.3556 30.6238 17.7684 32.5836C18.1812 34.5434 19.0589 36.3753 20.3275 37.925C18.1847 39.3618 16.3834 41.2515 15.0507 43.4606C13.7181 45.6697 12.8866 48.1444 12.615 50.71C14.202 51.5345 15.8462 52.2439 17.535 52.8325C17.53 52.72 17.5 52.615 17.5 52.5C17.5105 49.9629 18.288 47.4883 19.7305 45.4011C21.1729 43.3139 23.2129 41.7117 25.5825 40.805C26.019 40.6404 26.4007 40.3569 26.6845 39.9866C26.9683 39.6164 27.1429 39.1741 27.1884 38.7098C27.2339 38.2455 27.1486 37.7777 26.9421 37.3593C26.7356 36.941 26.4162 36.5888 26.02 36.3425C24.9388 35.6757 24.0472 34.7421 23.4308 33.6314C22.8144 32.5208 22.4939 31.2703 22.5 30C22.5 28.0109 23.2902 26.1032 24.6967 24.6967C26.1032 23.2902 28.0109 22.5 30 22.5C31.9891 22.5 33.8968 23.2902 35.3033 24.6967C36.7098 26.1032 37.5 28.0109 37.5 30C37.5061 31.2703 37.1856 32.5208 36.5692 33.6314C35.9527 34.7421 35.0612 35.6757 33.98 36.3425C33.5838 36.5888 33.2643 36.941 33.0579 37.3593C32.8514 37.7777 32.7661 38.2455 32.8116 38.7098C32.8571 39.1741 33.0316 39.6164 33.3154 39.9866C33.5992 40.3569 33.981 40.6404 34.4175 40.805C36.7871 41.7117 38.8271 43.3139 40.2695 45.4011C41.712 47.4883 42.4895 49.9629 42.5 52.5C42.5 52.615 42.47 52.72 42.4675 52.8325C44.1554 52.2438 45.7988 51.5345 47.385 50.71V50.71Z" fill="white"/>
</svg>
