<svg width="60" height="60" viewBox="0 0 60 60" fill="none" xmlns="http://www.w3.org/2000/svg">
<path d="M54.4594 46.4259V16.9475H53.2049V10.3378C53.2049 9.38528 52.5467 8.58843 51.6611 8.3716V4.35513H46.6433V35.4259H51.661V35.4254H51.9506V46.4257H46.4099V50.6715H60V46.4257H54.4593V46.4259H54.4594Z" fill="white"/>
<path d="M41.0952 46.3817L24.6914 48.3558V50.6716H41.0952V46.3817Z" fill="white"/>
<path d="M59.9998 51.5923H24.6914V55.645H59.9998V51.5923Z" fill="white"/>
<path d="M16.126 25.1116C20.9839 25.1116 24.9219 21.1736 24.9219 16.3157C24.9219 11.4578 20.9839 7.51978 16.126 7.51978C11.2681 7.51978 7.33008 11.4578 7.33008 16.3157C7.33008 21.1736 11.2681 25.1116 16.126 25.1116Z" fill="white"/>
<path d="M31.5789 37.889L17.4302 37.8777L16.9529 37.8762V35.5373L16.9364 33.5794C16.9364 28.9027 13.145 25.1112 8.46814 25.1112C8.30968 25.1112 8.15237 25.1165 7.996 25.125L7.98412 25.1112C3.57463 25.1113 0 28.6859 0 33.0953V55.6446H16.953V46.0388L16.7288 46.0212C16.7128 46.0196 16.7089 46.0213 16.6989 46.0213C15.5519 46.0213 14.4526 45.5382 13.6779 44.6926L6.79702 37.1816C6.57765 36.9423 6.59392 36.5704 6.83327 36.3512C7.07254 36.1318 7.44436 36.148 7.66366 36.3875L14.5446 43.8983C15.1036 44.5087 15.8922 44.882 16.7224 44.8941C16.7777 44.8947 17.5314 44.9056 17.5314 44.9056H31.5789C33.5166 44.9056 35.0874 43.3348 35.0874 41.397C35.0872 39.4596 33.5165 37.889 31.5789 37.889Z" fill="white"/>
</svg>
